<mxfile host="app.diagrams.net" agent="Mozilla/5.0 (Windows NT 10.0; Win64; x64) AppleWebKit/537.36 (KHTML, like Gecko) Chrome/137.0.0.0 Safari/537.36" version="27.2.0">
  <diagram name="Page-1" id="czc_hWt8e85yeRCTW7T8">
    <mxGraphModel dx="1892" dy="527" grid="1" gridSize="10" guides="1" tooltips="1" connect="1" arrows="1" fold="1" page="1" pageScale="1" pageWidth="850" pageHeight="1100" math="0" shadow="0">
      <root>
        <mxCell id="0" />
        <mxCell id="1" parent="0" />
        <mxCell id="dpriFKQYkz-P6pvJApT8-1" value="SOURCE" style="rounded=1;whiteSpace=wrap;html=1;fillStyle=auto;gradientColor=none;fillColor=light-dark(#FFFFFF,#FFF2F8);glass=0;shadow=0;fontColor=light-dark(#000000,#000000);strokeColor=default;labelBackgroundColor=none;labelBorderColor=none;textShadow=0;fontStyle=1" vertex="1" parent="1">
          <mxGeometry x="-98" y="196" width="120" height="70" as="geometry" />
        </mxCell>
        <mxCell id="dpriFKQYkz-P6pvJApT8-21" value="" style="edgeStyle=orthogonalEdgeStyle;rounded=0;orthogonalLoop=1;jettySize=auto;html=1;" edge="1" parent="1" source="dpriFKQYkz-P6pvJApT8-2" target="dpriFKQYkz-P6pvJApT8-11">
          <mxGeometry relative="1" as="geometry" />
        </mxCell>
        <mxCell id="dpriFKQYkz-P6pvJApT8-2" value="APACHE AIRFLOW" style="rounded=1;whiteSpace=wrap;html=1;fontColor=light-dark(#000000,#0A0A0A);strokeColor=light-dark(#FFFFFF,#FFEEF9);fillColor=light-dark(#FFFFFF,#FFFFFF);fontStyle=1" vertex="1" parent="1">
          <mxGeometry x="456" y="196" width="120" height="70" as="geometry" />
        </mxCell>
        <mxCell id="dpriFKQYkz-P6pvJApT8-3" value="PYTHON" style="rounded=1;whiteSpace=wrap;html=1;fillColor=light-dark(#FFFFFF,#FFF8F9);fontColor=light-dark(#000000,#0C0C0C);fontStyle=1" vertex="1" parent="1">
          <mxGeometry x="177" y="196" width="120" height="70" as="geometry" />
        </mxCell>
        <mxCell id="dpriFKQYkz-P6pvJApT8-6" value="" style="endArrow=classic;html=1;rounded=0;entryX=0;entryY=0.5;entryDx=0;entryDy=0;exitX=1;exitY=0.5;exitDx=0;exitDy=0;" edge="1" parent="1" source="dpriFKQYkz-P6pvJApT8-3" target="dpriFKQYkz-P6pvJApT8-2">
          <mxGeometry width="50" height="50" relative="1" as="geometry">
            <mxPoint x="150" y="200" as="sourcePoint" />
            <mxPoint x="420" y="30" as="targetPoint" />
          </mxGeometry>
        </mxCell>
        <mxCell id="dpriFKQYkz-P6pvJApT8-18" value="TRIGGERE AND&lt;br&gt;&amp;nbsp;SCHEDULED&lt;span style=&quot;background-color: light-dark(#ffffff, var(--ge-dark-color, #121212)); color: light-dark(rgb(0, 0, 0), rgb(255, 255, 255));&quot;&gt;&amp;nbsp;BY AIRFLOW&lt;/span&gt;" style="edgeLabel;html=1;align=center;verticalAlign=middle;resizable=0;points=[];" vertex="1" connectable="0" parent="dpriFKQYkz-P6pvJApT8-6">
          <mxGeometry x="-0.0225" relative="1" as="geometry">
            <mxPoint x="2" y="15" as="offset" />
          </mxGeometry>
        </mxCell>
        <mxCell id="dpriFKQYkz-P6pvJApT8-9" value="" style="endArrow=classic;html=1;rounded=0;exitX=1;exitY=0.5;exitDx=0;exitDy=0;entryX=0;entryY=0.5;entryDx=0;entryDy=0;" edge="1" parent="1" source="dpriFKQYkz-P6pvJApT8-1" target="dpriFKQYkz-P6pvJApT8-3">
          <mxGeometry width="50" height="50" relative="1" as="geometry">
            <mxPoint x="59.5" y="80" as="sourcePoint" />
            <mxPoint x="59.5" y="170" as="targetPoint" />
          </mxGeometry>
        </mxCell>
        <mxCell id="dpriFKQYkz-P6pvJApT8-17" value="GET REQUEST VIA API" style="edgeLabel;html=1;align=center;verticalAlign=middle;resizable=0;points=[];rotation=0;" vertex="1" connectable="0" parent="dpriFKQYkz-P6pvJApT8-9">
          <mxGeometry x="0.0311" relative="1" as="geometry">
            <mxPoint x="-2" y="12" as="offset" />
          </mxGeometry>
        </mxCell>
        <mxCell id="dpriFKQYkz-P6pvJApT8-16" value="" style="edgeStyle=orthogonalEdgeStyle;rounded=0;orthogonalLoop=1;jettySize=auto;html=1;" edge="1" parent="1" source="dpriFKQYkz-P6pvJApT8-11" target="dpriFKQYkz-P6pvJApT8-14">
          <mxGeometry relative="1" as="geometry" />
        </mxCell>
        <mxCell id="dpriFKQYkz-P6pvJApT8-20" value="LOG STATUS" style="edgeLabel;html=1;align=center;verticalAlign=middle;resizable=0;points=[];rotation=0;fontSize=16;spacingTop=0;spacing=2;spacingLeft=0;spacingBottom=0;" vertex="1" connectable="0" parent="dpriFKQYkz-P6pvJApT8-16">
          <mxGeometry x="0.0114" y="1" relative="1" as="geometry">
            <mxPoint x="31" y="19" as="offset" />
          </mxGeometry>
        </mxCell>
        <mxCell id="dpriFKQYkz-P6pvJApT8-11" value="TARGET&lt;div&gt;(SQL DB + TABLE)&lt;/div&gt;" style="rounded=1;whiteSpace=wrap;html=1;fillColor=light-dark(#FFFFFF,#FFFFFF);fontColor=light-dark(#000000,#000000);fontStyle=1" vertex="1" parent="1">
          <mxGeometry x="456" y="410" width="120" height="70" as="geometry" />
        </mxCell>
        <mxCell id="dpriFKQYkz-P6pvJApT8-14" value="JOB STATUS TRACKER&lt;div&gt;(SQL&lt;span style=&quot;background-color: transparent; color: light-dark(rgb(0, 0, 0), rgb(8, 7, 8));&quot;&gt;)&lt;/span&gt;&lt;/div&gt;" style="rounded=1;whiteSpace=wrap;html=1;fillColor=light-dark(#FFFFFF,#FFFFFF);fontColor=light-dark(#000000,#080708);fontStyle=1" vertex="1" parent="1">
          <mxGeometry x="220" y="500" width="120" height="70" as="geometry" />
        </mxCell>
        <mxCell id="dpriFKQYkz-P6pvJApT8-22" value="END USER" style="rounded=1;whiteSpace=wrap;html=1;fillColor=light-dark(#FFFFFF,#FFF2F8);fontColor=light-dark(#000000,#000000);spacing=2;fontStyle=1" vertex="1" parent="1">
          <mxGeometry x="690" y="500" width="120" height="70" as="geometry" />
        </mxCell>
        <mxCell id="dpriFKQYkz-P6pvJApT8-30" value="" style="edgeStyle=none;orthogonalLoop=1;jettySize=auto;html=1;rounded=0;exitX=1;exitY=0.5;exitDx=0;exitDy=0;entryX=0.5;entryY=0;entryDx=0;entryDy=0;" edge="1" parent="1" source="dpriFKQYkz-P6pvJApT8-11" target="dpriFKQYkz-P6pvJApT8-22">
          <mxGeometry width="100" relative="1" as="geometry">
            <mxPoint x="580" y="560" as="sourcePoint" />
            <mxPoint x="680" y="560" as="targetPoint" />
            <Array as="points">
              <mxPoint x="750" y="445" />
            </Array>
          </mxGeometry>
        </mxCell>
      </root>
    </mxGraphModel>
  </diagram>
</mxfile>
